<svg xmlns="http://www.w3.org/2000/svg" version="1.1" xmlns:xlink="http://www.w3.org/1999/xlink" viewBox="0 0 200 200"><rect width="200" height="200" fill="url('#gradient')"></rect><defs><linearGradient id="gradient" gradientTransform="rotate(45 0.5 0.5)"><stop offset="0%" stop-color="#ffdf0e"></stop><stop offset="100%" stop-color="#ffdf0e"></stop></linearGradient></defs><g><g fill="#8553d7" transform="matrix(3.4902480590797196,0,0,3.4902480590797196,6.251583160109831,124.46835702667858)" stroke="#dccf90" stroke-width="0.2"><path d="M6.85 0L1.07 0L1.07-14.22L6.18-14.22Q8.93-14.22 10.36-13.21Q11.79-12.21 11.79-10.29L11.79-10.29Q11.79-9.19 11.28-8.41Q10.77-7.63 9.79-7.26L9.79-7.26Q10.90-6.96 11.49-6.16Q12.09-5.36 12.09-4.21L12.09-4.21Q12.09-2.12 10.77-1.07Q9.44-0.02 6.85 0L6.85 0ZM6.90-6.04L4.50-6.04L4.50-2.64L6.75-2.64Q7.68-2.64 8.17-3.06Q8.67-3.49 8.67-4.26L8.67-4.26Q8.67-6.04 6.90-6.04L6.90-6.04ZM4.50-11.57L4.50-8.29L6.29-8.29Q7.41-8.30 7.89-8.70Q8.37-9.10 8.37-9.88L8.37-9.88Q8.37-10.78 7.85-11.18Q7.33-11.57 6.18-11.57L6.18-11.57L4.50-11.57ZM21.70-14.22L25.13-14.22L25.13-4.91Q25.13-3.33 24.45-2.17Q23.78-1.02 22.52-0.41Q21.26 0.20 19.54 0.20L19.54 0.20Q16.94 0.20 15.45-1.15Q13.96-2.50 13.93-4.84L13.93-4.84L13.93-14.22L17.37-14.22L17.37-4.78Q17.43-2.44 19.54-2.44L19.54-2.44Q20.61-2.44 21.15-3.03Q21.70-3.61 21.70-4.93L21.70-4.93L21.70-14.22ZM30.69-14.22L30.69-2.64L36.66-2.64L36.66 0L27.27 0L27.27-14.22L30.69-14.22ZM41.53-14.22L41.53-2.64L47.50-2.64L47.50 0L38.11 0L38.11-14.22L41.53-14.22ZM50.83-3.19L50.83-3.19Q51.61-3.19 52.13-2.73Q52.65-2.27 52.65-1.54Q52.65-0.82 52.13-0.36Q51.61 0.11 50.83 0.11L50.83 0.11Q50.04 0.11 49.53-0.36Q49.01-0.83 49.01-1.54Q49.01-2.26 49.53-2.72Q50.04-3.19 50.83-3.19Z"></path></g></g></svg>